<svg xmlns="http://www.w3.org/2000/svg" width="226" height="49" viewBox="0 0 226 49">
    <g fill="none" fill-rule="evenodd">
        <g fill="#000">
            <g>
                <g>
                    <path fill-rule="nonzero" d="M66.686 47.75c8.45 0 11.663-5.535 11.663-10.26 0-4.671-3.806-7.749-7.803-7.749H63.58L59.612 47.75h7.074zm.701-3.375h-3.186l2.485-11.259h3.131c2.674 0 4.537 1.998 4.537 4.617 0 3.591-2.62 6.642-6.966 6.642zm15.445 3.375L86.8 29.741h-3.835L78.998 47.75h3.834zm13.284.324c2.97 0 5.561-1.215 7.317-3.294l1.566-7.02h-8.614l-.756 3.375h4.78l-.487 2.16c-.918.783-2.105 1.377-3.59 1.377-3.16 0-5.076-2.187-5.076-4.914 0-3.942 2.942-6.912 6.29-6.912 2.025 0 3.834 1.08 4.428 2.565l3.537-1.512c-1.08-2.295-3.563-4.455-7.424-4.455-6.237 0-10.828 4.482-10.828 10.557 0 4.968 3.942 8.073 8.856 8.073zm13.553-.324l3.97-18.009h-3.834l-3.97 18.009h3.835zm11.584 0l3.213-14.634h5.265l.728-3.375h-14.364l-.755 3.375h5.264l-3.213 14.634h3.861zm10.34 0l1.81-3.051h7.722l.458 3.051h4.159l-2.97-18.009h-4.806L127.03 47.75h4.564zm9.208-6.426h-5.59l4.51-7.749 1.08 7.749zm18.063 6.426l.728-3.375h-7.587l3.214-14.634h-3.834l-3.97 18.009h11.448zM67.225 23l1.324-6.048 2.348-2.16L76.027 23h2.62l-6.076-9.45 9.397-8.559h-2.944L69.17 14.09l2.026-9.099h-2.241L64.984 23h2.242zm23.275.324c5.615 0 10.124-4.725 10.124-10.773 0-4.968-3.698-7.857-8.316-7.857-5.616 0-10.125 4.725-10.125 10.746 0 4.995 3.7 7.884 8.316 7.884zm.135-1.998c-3.376 0-6.076-2.133-6.076-5.994 0-4.995 3.484-8.64 7.615-8.64 3.347 0 6.075 2.16 6.075 5.994 0 4.995-3.537 8.64-7.614 8.64zM104.106 23l1.54-7.155h3.78L112.45 23h2.484l-3.24-7.263c3.51-.243 5.86-2.727 5.86-6.048 0-2.943-2.511-4.698-5.103-4.698h-6.615L101.865 23h2.242zm6.75-9.126h-4.751l1.538-6.885h4.482c1.54 0 3.051 1.188 3.051 2.889 0 2.187-1.539 3.996-4.32 3.996zM120.523 23l3.24-14.688L131.026 23h2.16l3.97-18.009h-2.242l-3.185 14.418-7.183-14.418h-2.295L118.282 23h2.242zm26.083 0l1.781-8.208h9.397l.431-1.998h-9.369l1.297-5.805h9.558l.431-1.998h-11.799L144.364 23h2.242zm24.407 0l.433-1.998h-9.585l1.377-6.21h9.395l.432-1.998h-9.369l1.297-5.805h9.558l.431-1.998h-11.798L159.214 23h11.8zm5.805 0l1.54-7.155h3.78L185.16 23h2.484l-3.24-7.263c3.51-.243 5.86-2.727 5.86-6.048 0-2.943-2.511-4.698-5.103-4.698h-6.615L174.577 23h2.242zm6.75-9.126h-4.752l1.54-6.885h4.482c1.538 0 3.05 1.188 3.05 2.889 0 2.187-1.538 3.996-4.32 3.996zM193.234 23l1.54-7.155h3.78L201.577 23h2.484l-3.24-7.263c3.51-.243 5.86-2.727 5.86-6.048 0-2.943-2.512-4.698-5.104-4.698h-6.614L190.993 23h2.242zm6.75-9.126h-4.752l1.54-6.885h4.482c1.538 0 3.05 1.188 3.05 2.889 0 2.187-1.538 3.996-4.32 3.996zM214.888 23l1.674-7.614 9.37-10.395h-2.781l-7.425 8.37-3.754-8.37h-2.457l4.806 10.395L212.648 23h2.24z" transform="translate(-998 -100) translate(998 100)"/>
                    <path d="M24.8 43.56v.61H14.057L0 23.363 15.78 4.58h4.598v.61H16.05L4.827 18.545 21.723 43.56H24.8zm7.981-38.98v.61h4.635c7.707 0 11.535 4.672 13.15 12.12H51V4.58H32.781zm0 19.178v.617c8.086 0 8.84 5.558 9.053 8.281h.433V15.643h-.433c-.487 5.45-2.802 8.114-9.053 8.114zM27.753 48.75h.59V0h-.59v48.75z" transform="translate(-998 -100) translate(998 100)"/>
                </g>
            </g>
        </g>
    </g>
</svg>
